<svg width="670" height="480" viewBox="0 0 670 480" fill="none" xmlns="http://www.w3.org/2000/svg">
<g filter="url(#filter0_d_535_1409)">
<rect x="35" y="17" width="600" height="410" rx="30" fill="white"/>
</g>
<path d="M146.015 157.077L255 94.1547L363.985 157.077V282.923L255 345.845L146.015 282.923V157.077Z" stroke="#EEEEF7" stroke-width="2"/>
<path d="M184.12 179.077L255 138.155L325.88 179.077V260.923L255 301.845L184.12 260.923V179.077Z" stroke="#EEEEF7" stroke-width="2"/>
<path d="M197.413 187.015L255.363 139.292L337.08 171.394L342.931 269.403L255.346 321.468L191.077 254.278L197.413 187.015Z" stroke="#0088F0" stroke-width="4"/>
<path d="M171.521 172.392L254.362 126.637L300.24 194.966L330.442 264H255.274L202.79 249.338L171.521 172.392Z" stroke="#EF2A82" stroke-width="4"/>
<path d="M230.885 206.077L255 192.155L279.115 206.077V233.923L255 247.845L230.885 233.923V206.077Z" stroke="#EEEEF7" stroke-width="2"/>
<path d="M495.508 153.252H498.184C499.866 153.226 501.188 152.783 502.15 151.923C503.113 151.063 503.594 149.902 503.594 148.439C503.594 145.153 501.958 143.51 498.685 143.51C497.145 143.51 495.913 143.953 494.989 144.838C494.077 145.711 493.622 146.873 493.622 148.323H490.06C490.06 146.103 490.869 144.261 492.486 142.798C494.116 141.322 496.182 140.584 498.685 140.584C501.329 140.584 503.402 141.283 504.903 142.682C506.405 144.081 507.156 146.026 507.156 148.516C507.156 149.735 506.758 150.916 505.962 152.058C505.179 153.2 504.108 154.054 502.747 154.619C504.287 155.106 505.475 155.915 506.309 157.044C507.156 158.174 507.58 159.554 507.58 161.184C507.58 163.699 506.758 165.695 505.115 167.171C503.472 168.647 501.335 169.385 498.704 169.385C496.073 169.385 493.93 168.673 492.274 167.248C490.631 165.823 489.81 163.943 489.81 161.607H493.391C493.391 163.083 493.872 164.264 494.835 165.15C495.797 166.035 497.087 166.478 498.704 166.478C500.424 166.478 501.74 166.029 502.651 165.13C503.562 164.232 504.018 162.942 504.018 161.261C504.018 159.631 503.517 158.379 502.516 157.506C501.515 156.634 500.071 156.184 498.184 156.159H495.508V153.252ZM527.506 159.586H531.395V162.493H527.506V169H523.925V162.493H511.16V160.394L523.713 140.969H527.506V159.586ZM515.203 159.586H523.925V145.84L523.501 146.61L515.203 159.586ZM534.302 146.359C534.302 144.678 534.834 143.292 535.9 142.201C536.978 141.11 538.357 140.564 540.039 140.564C541.746 140.564 543.126 141.116 544.178 142.22C545.243 143.311 545.776 144.729 545.776 146.475V147.842C545.776 149.536 545.237 150.922 544.159 152C543.093 153.066 541.733 153.598 540.077 153.598C538.409 153.598 537.029 153.066 535.938 152C534.847 150.922 534.302 149.491 534.302 147.707V146.359ZM536.958 147.842C536.958 148.843 537.241 149.671 537.806 150.325C538.37 150.967 539.128 151.288 540.077 151.288C540.989 151.288 541.72 150.973 542.272 150.345C542.837 149.716 543.119 148.856 543.119 147.765V146.359C543.119 145.358 542.843 144.53 542.291 143.876C541.739 143.221 540.989 142.894 540.039 142.894C539.089 142.894 538.338 143.221 537.786 143.876C537.234 144.53 536.958 145.384 536.958 146.436V147.842ZM547.951 162.127C547.951 160.446 548.484 159.066 549.549 157.988C550.628 156.897 552.007 156.351 553.689 156.351C555.37 156.351 556.75 156.89 557.828 157.968C558.906 159.047 559.445 160.478 559.445 162.262V163.629C559.445 165.31 558.906 166.696 557.828 167.787C556.763 168.865 555.396 169.404 553.727 169.404C552.059 169.404 550.679 168.872 549.588 167.806C548.497 166.728 547.951 165.297 547.951 163.513V162.127ZM550.608 163.629C550.608 164.643 550.891 165.477 551.455 166.131C552.02 166.773 552.777 167.094 553.727 167.094C554.651 167.094 555.389 166.78 555.941 166.151C556.493 165.509 556.769 164.643 556.769 163.552V162.127C556.769 161.113 556.487 160.285 555.922 159.643C555.37 159.002 554.626 158.681 553.689 158.681C552.777 158.681 552.033 159.002 551.455 159.643C550.891 160.272 550.608 161.126 550.608 162.204V163.629ZM540.886 166.882L538.864 165.612L552.553 143.703L554.574 144.973L540.886 166.882Z" fill="#EF2A82"/>
<path d="M488.8 195.157C488.8 194.226 488.981 193.388 489.345 192.644C489.714 191.899 490.224 191.325 490.874 190.921C491.53 190.517 492.277 190.314 493.115 190.314C494.41 190.314 495.456 190.763 496.253 191.659C497.056 192.556 497.457 193.748 497.457 195.236V195.351C497.457 196.276 497.278 197.108 496.921 197.847C496.569 198.579 496.062 199.15 495.4 199.561C494.744 199.971 493.988 200.176 493.133 200.176C491.844 200.176 490.798 199.728 489.995 198.831C489.198 197.935 488.8 196.748 488.8 195.271V195.157ZM490.435 195.351C490.435 196.405 490.678 197.252 491.164 197.891C491.656 198.529 492.312 198.849 493.133 198.849C493.959 198.849 494.615 198.526 495.102 197.882C495.588 197.231 495.831 196.323 495.831 195.157C495.831 194.114 495.582 193.271 495.084 192.626C494.592 191.976 493.936 191.65 493.115 191.65C492.312 191.65 491.665 191.97 491.173 192.608C490.681 193.247 490.435 194.161 490.435 195.351ZM507.529 195.351C507.529 196.798 507.198 197.964 506.536 198.849C505.874 199.733 504.978 200.176 503.847 200.176C502.692 200.176 501.784 199.81 501.122 199.077V203.656H499.496V190.49H500.981L501.061 191.545C501.723 190.725 502.643 190.314 503.82 190.314C504.963 190.314 505.865 190.745 506.527 191.606C507.195 192.468 507.529 193.666 507.529 195.201V195.351ZM505.903 195.166C505.903 194.094 505.675 193.247 505.218 192.626C504.761 192.005 504.134 191.694 503.337 191.694C502.353 191.694 501.614 192.131 501.122 193.004V197.548C501.608 198.415 502.353 198.849 503.354 198.849C504.134 198.849 504.752 198.541 505.209 197.926C505.672 197.305 505.903 196.385 505.903 195.166ZM511.81 188.188V190.49H513.585V191.747H511.81V197.645C511.81 198.025 511.889 198.312 512.047 198.506C512.205 198.693 512.475 198.787 512.855 198.787C513.043 198.787 513.301 198.752 513.629 198.682V200C513.201 200.117 512.785 200.176 512.381 200.176C511.654 200.176 511.106 199.956 510.737 199.517C510.368 199.077 510.184 198.453 510.184 197.645V191.747H508.452V190.49H510.184V188.188H511.81ZM517.259 200H515.633V190.49H517.259V200ZM515.501 187.968C515.501 187.704 515.58 187.481 515.738 187.3C515.902 187.118 516.143 187.027 516.459 187.027C516.775 187.027 517.016 187.118 517.18 187.3C517.344 187.481 517.426 187.704 517.426 187.968C517.426 188.231 517.344 188.451 517.18 188.627C517.016 188.803 516.775 188.891 516.459 188.891C516.143 188.891 515.902 188.803 515.738 188.627C515.58 188.451 515.501 188.231 515.501 187.968ZM519.438 195.157C519.438 194.226 519.62 193.388 519.983 192.644C520.353 191.899 520.862 191.325 521.513 190.921C522.169 190.517 522.916 190.314 523.754 190.314C525.049 190.314 526.095 190.763 526.892 191.659C527.694 192.556 528.096 193.748 528.096 195.236V195.351C528.096 196.276 527.917 197.108 527.56 197.847C527.208 198.579 526.701 199.15 526.039 199.561C525.383 199.971 524.627 200.176 523.771 200.176C522.482 200.176 521.437 199.728 520.634 198.831C519.837 197.935 519.438 196.748 519.438 195.271V195.157ZM521.073 195.351C521.073 196.405 521.316 197.252 521.803 197.891C522.295 198.529 522.951 198.849 523.771 198.849C524.598 198.849 525.254 198.526 525.74 197.882C526.227 197.231 526.47 196.323 526.47 195.157C526.47 194.114 526.221 193.271 525.723 192.626C525.23 191.976 524.574 191.65 523.754 191.65C522.951 191.65 522.304 191.97 521.812 192.608C521.319 193.247 521.073 194.161 521.073 195.351ZM531.673 190.49L531.726 191.686C532.452 190.771 533.401 190.314 534.573 190.314C536.583 190.314 537.597 191.448 537.614 193.716V200H535.988V193.707C535.982 193.021 535.824 192.515 535.514 192.187C535.209 191.858 534.731 191.694 534.081 191.694C533.554 191.694 533.091 191.835 532.692 192.116C532.294 192.397 531.983 192.767 531.761 193.224V200H530.135V190.49H531.673ZM549.708 200H548.073V189.163L544.795 190.367V188.891L549.453 187.142H549.708V200Z" fill="#8794BA"/>
<path d="M508.696 281H490.33V278.439L500.033 267.658C501.47 266.028 502.458 264.706 502.997 263.692C503.549 262.665 503.825 261.607 503.825 260.516C503.825 259.052 503.383 257.852 502.497 256.915C501.611 255.979 500.431 255.51 498.955 255.51C497.183 255.51 495.804 256.017 494.815 257.031C493.84 258.032 493.352 259.431 493.352 261.228H489.79C489.79 258.648 490.618 256.562 492.274 254.971C493.943 253.379 496.169 252.584 498.955 252.584C501.56 252.584 503.62 253.27 505.134 254.644C506.649 256.004 507.406 257.82 507.406 260.092C507.406 262.852 505.648 266.137 502.131 269.949L494.623 278.093H508.696V281ZM526.119 268.679C525.375 269.564 524.483 270.277 523.443 270.816C522.417 271.355 521.287 271.624 520.055 271.624C518.438 271.624 517.026 271.226 515.819 270.431C514.626 269.635 513.702 268.518 513.047 267.081C512.393 265.63 512.065 264.032 512.065 262.287C512.065 260.413 512.418 258.725 513.124 257.223C513.843 255.722 514.857 254.573 516.166 253.777C517.475 252.982 519.003 252.584 520.748 252.584C523.52 252.584 525.702 253.623 527.294 255.703C528.898 257.769 529.7 260.593 529.7 264.174V265.213C529.7 270.668 528.622 274.653 526.466 277.169C524.31 279.672 521.056 280.955 516.705 281.019H516.012V278.016H516.763C519.702 277.965 521.961 277.201 523.54 275.725C525.118 274.236 525.978 271.887 526.119 268.679ZM520.633 268.679C521.826 268.679 522.924 268.313 523.925 267.581C524.939 266.85 525.677 265.945 526.139 264.867V263.442C526.139 261.106 525.632 259.206 524.618 257.743C523.604 256.28 522.32 255.549 520.767 255.549C519.201 255.549 517.944 256.152 516.994 257.358C516.044 258.552 515.569 260.131 515.569 262.094C515.569 264.007 516.025 265.585 516.936 266.83C517.86 268.062 519.092 268.679 520.633 268.679ZM534.302 258.359C534.302 256.678 534.834 255.292 535.9 254.201C536.978 253.11 538.357 252.564 540.039 252.564C541.746 252.564 543.126 253.116 544.178 254.22C545.243 255.311 545.776 256.729 545.776 258.475V259.842C545.776 261.536 545.237 262.922 544.159 264C543.093 265.066 541.733 265.598 540.077 265.598C538.409 265.598 537.029 265.066 535.938 264C534.847 262.922 534.302 261.491 534.302 259.707V258.359ZM536.958 259.842C536.958 260.843 537.241 261.671 537.806 262.325C538.37 262.967 539.128 263.288 540.077 263.288C540.989 263.288 541.72 262.973 542.272 262.345C542.837 261.716 543.119 260.856 543.119 259.765V258.359C543.119 257.358 542.843 256.53 542.291 255.876C541.739 255.221 540.989 254.894 540.039 254.894C539.089 254.894 538.338 255.221 537.786 255.876C537.234 256.53 536.958 257.384 536.958 258.436V259.842ZM547.951 274.127C547.951 272.446 548.484 271.066 549.549 269.988C550.628 268.897 552.007 268.351 553.689 268.351C555.37 268.351 556.75 268.89 557.828 269.968C558.906 271.047 559.445 272.478 559.445 274.262V275.629C559.445 277.31 558.906 278.696 557.828 279.787C556.763 280.865 555.396 281.404 553.727 281.404C552.059 281.404 550.679 280.872 549.588 279.806C548.497 278.728 547.951 277.297 547.951 275.513V274.127ZM550.608 275.629C550.608 276.643 550.891 277.477 551.455 278.131C552.02 278.773 552.777 279.094 553.727 279.094C554.651 279.094 555.389 278.78 555.941 278.151C556.493 277.509 556.769 276.643 556.769 275.552V274.127C556.769 273.113 556.487 272.285 555.922 271.643C555.37 271.002 554.626 270.681 553.689 270.681C552.777 270.681 552.033 271.002 551.455 271.643C550.891 272.272 550.608 273.126 550.608 274.204V275.629ZM540.886 278.882L538.864 277.612L552.553 255.703L554.574 256.973L540.886 278.882Z" fill="#0088F0"/>
<path d="M488.8 307.157C488.8 306.226 488.981 305.388 489.345 304.644C489.714 303.899 490.224 303.325 490.874 302.921C491.53 302.517 492.277 302.314 493.115 302.314C494.41 302.314 495.456 302.763 496.253 303.659C497.056 304.556 497.457 305.748 497.457 307.236V307.351C497.457 308.276 497.278 309.108 496.921 309.847C496.569 310.579 496.062 311.15 495.4 311.561C494.744 311.971 493.988 312.176 493.133 312.176C491.844 312.176 490.798 311.728 489.995 310.831C489.198 309.935 488.8 308.748 488.8 307.271V307.157ZM490.435 307.351C490.435 308.405 490.678 309.252 491.164 309.891C491.656 310.529 492.312 310.849 493.133 310.849C493.959 310.849 494.615 310.526 495.102 309.882C495.588 309.231 495.831 308.323 495.831 307.157C495.831 306.114 495.582 305.271 495.084 304.626C494.592 303.976 493.936 303.65 493.115 303.65C492.312 303.65 491.665 303.97 491.173 304.608C490.681 305.247 490.435 306.161 490.435 307.351ZM507.529 307.351C507.529 308.798 507.198 309.964 506.536 310.849C505.874 311.733 504.978 312.176 503.847 312.176C502.692 312.176 501.784 311.81 501.122 311.077V315.656H499.496V302.49H500.981L501.061 303.545C501.723 302.725 502.643 302.314 503.82 302.314C504.963 302.314 505.865 302.745 506.527 303.606C507.195 304.468 507.529 305.666 507.529 307.201V307.351ZM505.903 307.166C505.903 306.094 505.675 305.247 505.218 304.626C504.761 304.005 504.134 303.694 503.337 303.694C502.353 303.694 501.614 304.131 501.122 305.004V309.548C501.608 310.415 502.353 310.849 503.354 310.849C504.134 310.849 504.752 310.541 505.209 309.926C505.672 309.305 505.903 308.385 505.903 307.166ZM511.81 300.188V302.49H513.585V303.747H511.81V309.645C511.81 310.025 511.889 310.312 512.047 310.506C512.205 310.693 512.475 310.787 512.855 310.787C513.043 310.787 513.301 310.752 513.629 310.682V312C513.201 312.117 512.785 312.176 512.381 312.176C511.654 312.176 511.106 311.956 510.737 311.517C510.368 311.077 510.184 310.453 510.184 309.645V303.747H508.452V302.49H510.184V300.188H511.81ZM517.259 312H515.633V302.49H517.259V312ZM515.501 299.968C515.501 299.704 515.58 299.481 515.738 299.3C515.902 299.118 516.143 299.027 516.459 299.027C516.775 299.027 517.016 299.118 517.18 299.3C517.344 299.481 517.426 299.704 517.426 299.968C517.426 300.231 517.344 300.451 517.18 300.627C517.016 300.803 516.775 300.891 516.459 300.891C516.143 300.891 515.902 300.803 515.738 300.627C515.58 300.451 515.501 300.231 515.501 299.968ZM519.438 307.157C519.438 306.226 519.62 305.388 519.983 304.644C520.353 303.899 520.862 303.325 521.513 302.921C522.169 302.517 522.916 302.314 523.754 302.314C525.049 302.314 526.095 302.763 526.892 303.659C527.694 304.556 528.096 305.748 528.096 307.236V307.351C528.096 308.276 527.917 309.108 527.56 309.847C527.208 310.579 526.701 311.15 526.039 311.561C525.383 311.971 524.627 312.176 523.771 312.176C522.482 312.176 521.437 311.728 520.634 310.831C519.837 309.935 519.438 308.748 519.438 307.271V307.157ZM521.073 307.351C521.073 308.405 521.316 309.252 521.803 309.891C522.295 310.529 522.951 310.849 523.771 310.849C524.598 310.849 525.254 310.526 525.74 309.882C526.227 309.231 526.47 308.323 526.47 307.157C526.47 306.114 526.221 305.271 525.723 304.626C525.23 303.976 524.574 303.65 523.754 303.65C522.951 303.65 522.304 303.97 521.812 304.608C521.319 305.247 521.073 306.161 521.073 307.351ZM531.673 302.49L531.726 303.686C532.452 302.771 533.401 302.314 534.573 302.314C536.583 302.314 537.597 303.448 537.614 305.716V312H535.988V305.707C535.982 305.021 535.824 304.515 535.514 304.187C535.209 303.858 534.731 303.694 534.081 303.694C533.554 303.694 533.091 303.835 532.692 304.116C532.294 304.397 531.983 304.767 531.761 305.224V312H530.135V302.49H531.673ZM552.749 312H544.364V310.831L548.794 305.909C549.45 305.165 549.901 304.562 550.147 304.099C550.399 303.63 550.525 303.146 550.525 302.648C550.525 301.98 550.323 301.433 549.919 301.005C549.515 300.577 548.976 300.363 548.302 300.363C547.493 300.363 546.863 300.595 546.412 301.058C545.967 301.515 545.744 302.153 545.744 302.974H544.118C544.118 301.796 544.496 300.844 545.252 300.117C546.014 299.391 547.03 299.027 548.302 299.027C549.491 299.027 550.432 299.341 551.123 299.968C551.814 300.589 552.16 301.418 552.16 302.455C552.16 303.715 551.357 305.215 549.752 306.955L546.324 310.673H552.749V312Z" fill="#8794BA"/>
<path d="M244.637 81H243.547V73.7754L241.361 74.5781V73.5938L244.467 72.4277H244.637V81ZM252.986 74.6953C252.986 75.1211 252.873 75.5 252.646 75.832C252.424 76.1641 252.121 76.4238 251.738 76.6113C252.184 76.8027 252.535 77.082 252.793 77.4492C253.055 77.8164 253.186 78.2324 253.186 78.6973C253.186 79.4355 252.936 80.0234 252.436 80.4609C251.939 80.8984 251.285 81.1172 250.473 81.1172C249.652 81.1172 248.994 80.8984 248.498 80.4609C248.006 80.0195 247.76 79.4316 247.76 78.6973C247.76 78.2363 247.885 77.8203 248.135 77.4492C248.389 77.0781 248.738 76.7969 249.184 76.6055C248.805 76.418 248.506 76.1582 248.287 75.8262C248.068 75.4941 247.959 75.1172 247.959 74.6953C247.959 73.9766 248.189 73.4062 248.65 72.9844C249.111 72.5625 249.719 72.3516 250.473 72.3516C251.223 72.3516 251.828 72.5625 252.289 72.9844C252.754 73.4062 252.986 73.9766 252.986 74.6953ZM252.102 78.6738C252.102 78.1973 251.949 77.8086 251.645 77.5078C251.344 77.207 250.949 77.0566 250.461 77.0566C249.973 77.0566 249.58 77.2051 249.283 77.502C248.99 77.7988 248.844 78.1895 248.844 78.6738C248.844 79.1582 248.986 79.5391 249.271 79.8164C249.561 80.0938 249.961 80.2324 250.473 80.2324C250.98 80.2324 251.379 80.0938 251.668 79.8164C251.957 79.5352 252.102 79.1543 252.102 78.6738ZM250.473 73.2422C250.047 73.2422 249.701 73.375 249.436 73.6406C249.174 73.9023 249.043 74.2598 249.043 74.7129C249.043 75.1465 249.172 75.498 249.43 75.7676C249.691 76.0332 250.039 76.166 250.473 76.166C250.906 76.166 251.252 76.0332 251.51 75.7676C251.771 75.498 251.902 75.1465 251.902 74.7129C251.902 74.2793 251.768 73.9258 251.498 73.6523C251.229 73.3789 250.887 73.2422 250.473 73.2422ZM256.918 77.8184H254.059V76.9336H256.918V77.8184ZM263.457 81H257.867V80.2207L260.82 76.9395C261.258 76.4434 261.559 76.041 261.723 75.7324C261.891 75.4199 261.975 75.0977 261.975 74.7656C261.975 74.3203 261.84 73.9551 261.57 73.6699C261.301 73.3848 260.941 73.2422 260.492 73.2422C259.953 73.2422 259.533 73.3965 259.232 73.7051C258.936 74.0098 258.787 74.4355 258.787 74.9824H257.703C257.703 74.1973 257.955 73.5625 258.459 73.0781C258.967 72.5938 259.645 72.3516 260.492 72.3516C261.285 72.3516 261.912 72.5605 262.373 72.9785C262.834 73.3926 263.064 73.9453 263.064 74.6367C263.064 75.4766 262.529 76.4766 261.459 77.6367L259.174 80.1152H263.457V81ZM269.182 78.1348H270.365V79.0195H269.182V81H268.092V79.0195H264.207V78.3809L268.027 72.4688H269.182V78.1348ZM265.438 78.1348H268.092V73.9512L267.963 74.1855L265.438 78.1348Z" fill="#8794BA"/>
<path d="M387.664 159H382.074V158.221L385.027 154.939C385.465 154.443 385.766 154.041 385.93 153.732C386.098 153.42 386.182 153.098 386.182 152.766C386.182 152.32 386.047 151.955 385.777 151.67C385.508 151.385 385.148 151.242 384.699 151.242C384.16 151.242 383.74 151.396 383.439 151.705C383.143 152.01 382.994 152.436 382.994 152.982H381.91C381.91 152.197 382.162 151.562 382.666 151.078C383.174 150.594 383.852 150.352 384.699 150.352C385.492 150.352 386.119 150.561 386.58 150.979C387.041 151.393 387.271 151.945 387.271 152.637C387.271 153.477 386.736 154.477 385.666 155.637L383.381 158.115H387.664V159ZM389.311 154.723L389.744 150.469H394.115V151.471H390.664L390.406 153.797C390.824 153.551 391.299 153.428 391.83 153.428C392.607 153.428 393.225 153.686 393.682 154.201C394.139 154.713 394.367 155.406 394.367 156.281C394.367 157.16 394.129 157.854 393.652 158.361C393.18 158.865 392.518 159.117 391.666 159.117C390.912 159.117 390.297 158.908 389.82 158.49C389.344 158.072 389.072 157.494 389.006 156.756H390.031C390.098 157.244 390.271 157.613 390.553 157.863C390.834 158.109 391.205 158.232 391.666 158.232C392.17 158.232 392.564 158.061 392.85 157.717C393.139 157.373 393.283 156.898 393.283 156.293C393.283 155.723 393.127 155.266 392.814 154.922C392.506 154.574 392.094 154.4 391.578 154.4C391.105 154.4 390.734 154.504 390.465 154.711L390.178 154.945L389.311 154.723ZM397.918 155.818H395.059V154.934H397.918V155.818ZM400.443 154.207H401.258C401.77 154.199 402.172 154.064 402.465 153.803C402.758 153.541 402.904 153.188 402.904 152.742C402.904 151.742 402.406 151.242 401.41 151.242C400.941 151.242 400.566 151.377 400.285 151.646C400.008 151.912 399.869 152.266 399.869 152.707H398.785C398.785 152.031 399.031 151.471 399.523 151.025C400.02 150.576 400.648 150.352 401.41 150.352C402.215 150.352 402.846 150.564 403.303 150.99C403.76 151.416 403.988 152.008 403.988 152.766C403.988 153.137 403.867 153.496 403.625 153.844C403.387 154.191 403.061 154.451 402.646 154.623C403.115 154.771 403.477 155.018 403.73 155.361C403.988 155.705 404.117 156.125 404.117 156.621C404.117 157.387 403.867 157.994 403.367 158.443C402.867 158.893 402.217 159.117 401.416 159.117C400.615 159.117 399.963 158.9 399.459 158.467C398.959 158.033 398.709 157.461 398.709 156.75H399.799C399.799 157.199 399.945 157.559 400.238 157.828C400.531 158.098 400.924 158.232 401.416 158.232C401.939 158.232 402.34 158.096 402.617 157.822C402.895 157.549 403.033 157.156 403.033 156.645C403.033 156.148 402.881 155.768 402.576 155.502C402.271 155.236 401.832 155.1 401.258 155.092H400.443V154.207ZM410.182 156.135H411.365V157.02H410.182V159H409.092V157.02H405.207V156.381L409.027 150.469H410.182V156.135ZM406.438 156.135H409.092V151.951L408.963 152.186L406.438 156.135Z" fill="#8794BA"/>
<path d="M383.65 285.207H384.465C384.977 285.199 385.379 285.064 385.672 284.803C385.965 284.541 386.111 284.188 386.111 283.742C386.111 282.742 385.613 282.242 384.617 282.242C384.148 282.242 383.773 282.377 383.492 282.646C383.215 282.912 383.076 283.266 383.076 283.707H381.992C381.992 283.031 382.238 282.471 382.73 282.025C383.227 281.576 383.855 281.352 384.617 281.352C385.422 281.352 386.053 281.564 386.51 281.99C386.967 282.416 387.195 283.008 387.195 283.766C387.195 284.137 387.074 284.496 386.832 284.844C386.594 285.191 386.268 285.451 385.854 285.623C386.322 285.771 386.684 286.018 386.938 286.361C387.195 286.705 387.324 287.125 387.324 287.621C387.324 288.387 387.074 288.994 386.574 289.443C386.074 289.893 385.424 290.117 384.623 290.117C383.822 290.117 383.17 289.9 382.666 289.467C382.166 289.033 381.916 288.461 381.916 287.75H383.006C383.006 288.199 383.152 288.559 383.445 288.828C383.738 289.098 384.131 289.232 384.623 289.232C385.146 289.232 385.547 289.096 385.824 288.822C386.102 288.549 386.24 288.156 386.24 287.645C386.24 287.148 386.088 286.768 385.783 286.502C385.479 286.236 385.039 286.1 384.465 286.092H383.65V285.207ZM389.311 285.723L389.744 281.469H394.115V282.471H390.664L390.406 284.797C390.824 284.551 391.299 284.428 391.83 284.428C392.607 284.428 393.225 284.686 393.682 285.201C394.139 285.713 394.367 286.406 394.367 287.281C394.367 288.16 394.129 288.854 393.652 289.361C393.18 289.865 392.518 290.117 391.666 290.117C390.912 290.117 390.297 289.908 389.82 289.49C389.344 289.072 389.072 288.494 389.006 287.756H390.031C390.098 288.244 390.271 288.613 390.553 288.863C390.834 289.109 391.205 289.232 391.666 289.232C392.17 289.232 392.564 289.061 392.85 288.717C393.139 288.373 393.283 287.898 393.283 287.293C393.283 286.723 393.127 286.266 392.814 285.922C392.506 285.574 392.094 285.4 391.578 285.4C391.105 285.4 390.734 285.504 390.465 285.711L390.178 285.945L389.311 285.723ZM397.918 286.818H395.059V285.934H397.918V286.818ZM403.443 287.135H404.627V288.02H403.443V290H402.354V288.02H398.469V287.381L402.289 281.469H403.443V287.135ZM399.699 287.135H402.354V282.951L402.225 283.186L399.699 287.135ZM410.182 287.135H411.365V288.02H410.182V290H409.092V288.02H405.207V287.381L409.027 281.469H410.182V287.135ZM406.438 287.135H409.092V282.951L408.963 283.186L406.438 287.135Z" fill="#8794BA"/>
<path d="M245.65 372.135H246.834V373.02H245.65V375H244.561V373.02H240.676V372.381L244.496 366.469H245.65V372.135ZM241.906 372.135H244.561V367.951L244.432 368.186L241.906 372.135ZM248.311 370.723L248.744 366.469H253.115V367.471H249.664L249.406 369.797C249.824 369.551 250.299 369.428 250.83 369.428C251.607 369.428 252.225 369.686 252.682 370.201C253.139 370.713 253.367 371.406 253.367 372.281C253.367 373.16 253.129 373.854 252.652 374.361C252.18 374.865 251.518 375.117 250.666 375.117C249.912 375.117 249.297 374.908 248.82 374.49C248.344 374.072 248.072 373.494 248.006 372.756H249.031C249.098 373.244 249.271 373.613 249.553 373.863C249.834 374.109 250.205 374.232 250.666 374.232C251.17 374.232 251.564 374.061 251.85 373.717C252.139 373.373 252.283 372.898 252.283 372.293C252.283 371.723 252.127 371.266 251.814 370.922C251.506 370.574 251.094 370.4 250.578 370.4C250.105 370.4 249.734 370.504 249.465 370.711L249.178 370.945L248.311 370.723ZM256.918 371.818H254.059V370.934H256.918V371.818ZM258.365 370.723L258.799 366.469H263.17V367.471H259.719L259.461 369.797C259.879 369.551 260.354 369.428 260.885 369.428C261.662 369.428 262.279 369.686 262.736 370.201C263.193 370.713 263.422 371.406 263.422 372.281C263.422 373.16 263.184 373.854 262.707 374.361C262.234 374.865 261.572 375.117 260.721 375.117C259.967 375.117 259.352 374.908 258.875 374.49C258.398 374.072 258.127 373.494 258.061 372.756H259.086C259.152 373.244 259.326 373.613 259.607 373.863C259.889 374.109 260.26 374.232 260.721 374.232C261.225 374.232 261.619 374.061 261.904 373.717C262.193 373.373 262.338 372.898 262.338 372.293C262.338 371.723 262.182 371.266 261.869 370.922C261.561 370.574 261.148 370.4 260.633 370.4C260.16 370.4 259.789 370.504 259.52 370.711L259.232 370.945L258.365 370.723ZM269.182 372.135H270.365V373.02H269.182V375H268.092V373.02H264.207V372.381L268.027 366.469H269.182V372.135ZM265.438 372.135H268.092V367.951L267.963 368.186L265.438 372.135Z" fill="#8794BA"/>
<path d="M100.572 285.723L101.006 281.469H105.377V282.471H101.926L101.668 284.797C102.086 284.551 102.561 284.428 103.092 284.428C103.869 284.428 104.486 284.686 104.943 285.201C105.4 285.713 105.629 286.406 105.629 287.281C105.629 288.16 105.391 288.854 104.914 289.361C104.441 289.865 103.779 290.117 102.928 290.117C102.174 290.117 101.559 289.908 101.082 289.49C100.605 289.072 100.334 288.494 100.268 287.756H101.293C101.359 288.244 101.533 288.613 101.814 288.863C102.096 289.109 102.467 289.232 102.928 289.232C103.432 289.232 103.826 289.061 104.111 288.717C104.4 288.373 104.545 287.898 104.545 287.293C104.545 286.723 104.389 286.266 104.076 285.922C103.768 285.574 103.355 285.4 102.84 285.4C102.367 285.4 101.996 285.504 101.727 285.711L101.439 285.945L100.572 285.723ZM107.311 285.723L107.744 281.469H112.115V282.471H108.664L108.406 284.797C108.824 284.551 109.299 284.428 109.83 284.428C110.607 284.428 111.225 284.686 111.682 285.201C112.139 285.713 112.367 286.406 112.367 287.281C112.367 288.16 112.129 288.854 111.652 289.361C111.18 289.865 110.518 290.117 109.666 290.117C108.912 290.117 108.297 289.908 107.82 289.49C107.344 289.072 107.072 288.494 107.006 287.756H108.031C108.098 288.244 108.271 288.613 108.553 288.863C108.834 289.109 109.205 289.232 109.666 289.232C110.17 289.232 110.564 289.061 110.85 288.717C111.139 288.373 111.283 287.898 111.283 287.293C111.283 286.723 111.127 286.266 110.814 285.922C110.506 285.574 110.094 285.4 109.578 285.4C109.105 285.4 108.734 285.504 108.465 285.711L108.178 285.945L107.311 285.723ZM115.918 286.818H113.059V285.934H115.918V286.818ZM121.121 281.463V282.383H120.922C120.078 282.398 119.406 282.648 118.906 283.133C118.406 283.617 118.117 284.299 118.039 285.178C118.488 284.662 119.102 284.404 119.879 284.404C120.621 284.404 121.213 284.666 121.654 285.189C122.1 285.713 122.322 286.389 122.322 287.217C122.322 288.096 122.082 288.799 121.602 289.326C121.125 289.854 120.484 290.117 119.68 290.117C118.863 290.117 118.201 289.805 117.693 289.18C117.186 288.551 116.932 287.742 116.932 286.754V286.338C116.932 284.768 117.266 283.568 117.934 282.74C118.605 281.908 119.604 281.482 120.928 281.463H121.121ZM119.697 285.307C119.326 285.307 118.984 285.418 118.672 285.641C118.359 285.863 118.143 286.143 118.021 286.479V286.877C118.021 287.58 118.18 288.146 118.496 288.576C118.812 289.006 119.207 289.221 119.68 289.221C120.168 289.221 120.551 289.041 120.828 288.682C121.109 288.322 121.25 287.852 121.25 287.27C121.25 286.684 121.107 286.211 120.822 285.852C120.541 285.488 120.166 285.307 119.697 285.307ZM128.182 287.135H129.365V288.02H128.182V290H127.092V288.02H123.207V287.381L127.027 281.469H128.182V287.135ZM124.438 287.135H127.092V282.951L126.963 283.186L124.438 287.135Z" fill="#8794BA"/>
<path d="M109.32 150.463V151.383H109.121C108.277 151.398 107.605 151.648 107.105 152.133C106.605 152.617 106.316 153.299 106.238 154.178C106.688 153.662 107.301 153.404 108.078 153.404C108.82 153.404 109.412 153.666 109.854 154.189C110.299 154.713 110.521 155.389 110.521 156.217C110.521 157.096 110.281 157.799 109.801 158.326C109.324 158.854 108.684 159.117 107.879 159.117C107.062 159.117 106.4 158.805 105.893 158.18C105.385 157.551 105.131 156.742 105.131 155.754V155.338C105.131 153.768 105.465 152.568 106.133 151.74C106.805 150.908 107.803 150.482 109.127 150.463H109.32ZM107.896 154.307C107.525 154.307 107.184 154.418 106.871 154.641C106.559 154.863 106.342 155.143 106.221 155.479V155.877C106.221 156.58 106.379 157.146 106.695 157.576C107.012 158.006 107.406 158.221 107.879 158.221C108.367 158.221 108.75 158.041 109.027 157.682C109.309 157.322 109.449 156.852 109.449 156.27C109.449 155.684 109.307 155.211 109.021 154.852C108.74 154.488 108.365 154.307 107.896 154.307ZM112.303 154.723L112.736 150.469H117.107V151.471H113.656L113.398 153.797C113.816 153.551 114.291 153.428 114.822 153.428C115.6 153.428 116.217 153.686 116.674 154.201C117.131 154.713 117.359 155.406 117.359 156.281C117.359 157.16 117.121 157.854 116.645 158.361C116.172 158.865 115.51 159.117 114.658 159.117C113.904 159.117 113.289 158.908 112.812 158.49C112.336 158.072 112.064 157.494 111.998 156.756H113.023C113.09 157.244 113.264 157.613 113.545 157.863C113.826 158.109 114.197 158.232 114.658 158.232C115.162 158.232 115.557 158.061 115.842 157.717C116.131 157.373 116.275 156.898 116.275 156.293C116.275 155.723 116.119 155.266 115.807 154.922C115.498 154.574 115.086 154.4 114.57 154.4C114.098 154.4 113.727 154.504 113.457 154.711L113.17 154.945L112.303 154.723ZM121.76 154.424H124.139V155.449H121.76V158.145H120.67V155.449H118.291V154.424H120.67V151.934H121.76V154.424Z" fill="#8794BA"/>
<defs>
<filter id="filter0_d_535_1409" x="0" y="0" width="670" height="480" filterUnits="userSpaceOnUse" color-interpolation-filters="sRGB">
<feFlood flood-opacity="0" result="BackgroundImageFix"/>
<feColorMatrix in="SourceAlpha" type="matrix" values="0 0 0 0 0 0 0 0 0 0 0 0 0 0 0 0 0 0 127 0" result="hardAlpha"/>
<feMorphology radius="15" operator="erode" in="SourceAlpha" result="effect1_dropShadow_535_1409"/>
<feOffset dy="18"/>
<feGaussianBlur stdDeviation="25"/>
<feColorMatrix type="matrix" values="0 0 0 0 0.0996452 0 0 0 0 0.164326 0 0 0 0 0.350284 0 0 0 0.2 0"/>
<feBlend mode="normal" in2="BackgroundImageFix" result="effect1_dropShadow_535_1409"/>
<feBlend mode="normal" in="SourceGraphic" in2="effect1_dropShadow_535_1409" result="shape"/>
</filter>
</defs>
</svg>
