<svg width="670" height="480" viewBox="0 0 670 480" fill="none" xmlns="http://www.w3.org/2000/svg">
<g filter="url(#filter0_d_535_1643)">
<rect x="35" y="17" width="600" height="410" rx="30" fill="white"/>
</g>
<rect x="105" y="119" width="66" height="52" fill="white"/>
<rect x="171" y="119" width="66" height="52" fill="white"/>
<path d="M204.117 149H203.027V141.775L200.841 142.578V141.594L203.947 140.428H204.117V149Z" fill="#172755"/>
<rect x="237" y="119" width="66" height="52" fill="white"/>
<path d="M272.144 149H266.554V148.221L269.507 144.939C269.945 144.443 270.246 144.041 270.41 143.732C270.578 143.42 270.662 143.098 270.662 142.766C270.662 142.32 270.527 141.955 270.257 141.67C269.988 141.385 269.628 141.242 269.179 141.242C268.64 141.242 268.22 141.396 267.919 141.705C267.622 142.01 267.474 142.436 267.474 142.982H266.39C266.39 142.197 266.642 141.562 267.146 141.078C267.654 140.594 268.331 140.352 269.179 140.352C269.972 140.352 270.599 140.561 271.06 140.978C271.521 141.393 271.751 141.945 271.751 142.637C271.751 143.477 271.216 144.477 270.146 145.637L267.861 148.115H272.144V149Z" fill="#172755"/>
<rect x="303" y="119" width="66" height="52" fill="white"/>
<path d="M334.13 144.207H334.945C335.456 144.199 335.859 144.064 336.152 143.803C336.445 143.541 336.591 143.187 336.591 142.742C336.591 141.742 336.093 141.242 335.097 141.242C334.628 141.242 334.253 141.377 333.972 141.646C333.695 141.912 333.556 142.266 333.556 142.707H332.472C332.472 142.031 332.718 141.471 333.21 141.025C333.706 140.576 334.335 140.352 335.097 140.352C335.902 140.352 336.533 140.564 336.99 140.99C337.447 141.416 337.675 142.008 337.675 142.766C337.675 143.137 337.554 143.496 337.312 143.844C337.074 144.191 336.747 144.451 336.333 144.623C336.802 144.771 337.164 145.018 337.417 145.361C337.675 145.705 337.804 146.125 337.804 146.621C337.804 147.387 337.554 147.994 337.054 148.443C336.554 148.893 335.904 149.117 335.103 149.117C334.302 149.117 333.65 148.9 333.146 148.467C332.646 148.033 332.396 147.461 332.396 146.75H333.486C333.486 147.199 333.632 147.559 333.925 147.828C334.218 148.098 334.611 148.232 335.103 148.232C335.626 148.232 336.027 148.096 336.304 147.822C336.581 147.549 336.72 147.156 336.72 146.645C336.72 146.148 336.568 145.768 336.263 145.502C335.958 145.236 335.519 145.1 334.945 145.092H334.13V144.207Z" fill="#172755"/>
<rect x="369" y="119" width="66" height="52" fill="white"/>
<path d="M403.13 146.135H404.314V147.02H403.13V149H402.04V147.02H398.156V146.381L401.976 140.469H403.13V146.135ZM399.386 146.135H402.04V141.951L401.912 142.186L399.386 146.135Z" fill="#172755"/>
<rect x="435" y="119" width="66" height="52" fill="white"/>
<path d="M465.052 144.723L465.486 140.469H469.857V141.471H466.406L466.148 143.797C466.566 143.551 467.04 143.428 467.572 143.428C468.349 143.428 468.966 143.686 469.423 144.201C469.88 144.713 470.109 145.406 470.109 146.281C470.109 147.16 469.871 147.853 469.394 148.361C468.921 148.865 468.259 149.117 467.408 149.117C466.654 149.117 466.039 148.908 465.562 148.49C465.085 148.072 464.814 147.494 464.747 146.756H465.773C465.839 147.244 466.013 147.613 466.294 147.863C466.576 148.109 466.947 148.232 467.408 148.232C467.912 148.232 468.306 148.061 468.591 147.717C468.88 147.373 469.025 146.898 469.025 146.293C469.025 145.723 468.869 145.266 468.556 144.922C468.247 144.574 467.835 144.4 467.32 144.4C466.847 144.4 466.476 144.504 466.206 144.711L465.919 144.945L465.052 144.723Z" fill="#172755"/>
<rect x="501" y="119" width="66" height="52" fill="white"/>
<path d="M534.808 140.463V141.383H534.609C533.765 141.398 533.093 141.648 532.593 142.133C532.093 142.617 531.804 143.299 531.726 144.178C532.175 143.662 532.789 143.404 533.566 143.404C534.308 143.404 534.9 143.666 535.341 144.189C535.787 144.713 536.009 145.389 536.009 146.217C536.009 147.096 535.769 147.799 535.289 148.326C534.812 148.853 534.171 149.117 533.367 149.117C532.55 149.117 531.888 148.805 531.38 148.18C530.872 147.551 530.619 146.742 530.619 145.754V145.338C530.619 143.768 530.953 142.568 531.621 141.74C532.292 140.908 533.29 140.482 534.615 140.463H534.808ZM533.384 144.307C533.013 144.307 532.671 144.418 532.359 144.641C532.046 144.863 531.83 145.143 531.708 145.478V145.877C531.708 146.58 531.867 147.146 532.183 147.576C532.499 148.006 532.894 148.221 533.367 148.221C533.855 148.221 534.238 148.041 534.515 147.682C534.796 147.322 534.937 146.852 534.937 146.27C534.937 145.684 534.794 145.211 534.509 144.852C534.228 144.488 533.853 144.307 533.384 144.307Z" fill="#172755"/>
<rect x="105" y="171" width="66" height="52" fill="white"/>
<path d="M140.062 193.078L136.529 201H135.392L138.914 193.359H134.296V192.469H140.062V193.078Z" fill="#172755"/>
<rect x="171" y="171" width="66" height="52" fill="white"/>
<circle cx="203.5" cy="196.5" r="19.5" fill="#0088F0"/>
<path d="M205.728 194.695C205.728 195.121 205.615 195.5 205.388 195.832C205.165 196.164 204.863 196.424 204.48 196.611C204.925 196.803 205.277 197.082 205.535 197.449C205.796 197.816 205.927 198.232 205.927 198.697C205.927 199.436 205.677 200.023 205.177 200.461C204.681 200.898 204.027 201.117 203.214 201.117C202.394 201.117 201.736 200.898 201.24 200.461C200.747 200.02 200.501 199.432 200.501 198.697C200.501 198.236 200.626 197.82 200.876 197.449C201.13 197.078 201.48 196.797 201.925 196.605C201.546 196.418 201.247 196.158 201.029 195.826C200.81 195.494 200.701 195.117 200.701 194.695C200.701 193.977 200.931 193.406 201.392 192.984C201.853 192.562 202.46 192.352 203.214 192.352C203.964 192.352 204.57 192.562 205.031 192.984C205.496 193.406 205.728 193.977 205.728 194.695ZM204.843 198.674C204.843 198.197 204.691 197.809 204.386 197.508C204.085 197.207 203.691 197.057 203.203 197.057C202.714 197.057 202.322 197.205 202.025 197.502C201.732 197.799 201.585 198.189 201.585 198.674C201.585 199.158 201.728 199.539 202.013 199.816C202.302 200.094 202.703 200.232 203.214 200.232C203.722 200.232 204.121 200.094 204.41 199.816C204.699 199.535 204.843 199.154 204.843 198.674ZM203.214 193.242C202.789 193.242 202.443 193.375 202.177 193.641C201.915 193.902 201.785 194.26 201.785 194.713C201.785 195.146 201.914 195.498 202.171 195.768C202.433 196.033 202.781 196.166 203.214 196.166C203.648 196.166 203.994 196.033 204.251 195.768C204.513 195.498 204.644 195.146 204.644 194.713C204.644 194.279 204.509 193.926 204.24 193.652C203.97 193.379 203.628 193.242 203.214 193.242Z" fill="#EEEEF7"/>
<rect x="237" y="171" width="66" height="52" fill="white"/>
<circle cx="269.5" cy="196.5" r="19.5" fill="#0088F0"/>
<path d="M270.708 197.25C270.482 197.52 270.21 197.736 269.894 197.9C269.581 198.064 269.238 198.146 268.863 198.146C268.371 198.146 267.941 198.025 267.574 197.783C267.21 197.541 266.929 197.201 266.73 196.764C266.531 196.322 266.431 195.836 266.431 195.305C266.431 194.734 266.539 194.221 266.753 193.764C266.972 193.307 267.281 192.957 267.679 192.715C268.078 192.473 268.542 192.352 269.074 192.352C269.917 192.352 270.581 192.668 271.066 193.301C271.554 193.93 271.798 194.789 271.798 195.879V196.195C271.798 197.855 271.47 199.068 270.814 199.834C270.158 200.596 269.167 200.986 267.843 201.006H267.632V200.092H267.861C268.755 200.076 269.443 199.844 269.923 199.395C270.404 198.941 270.665 198.227 270.708 197.25ZM269.039 197.25C269.402 197.25 269.736 197.139 270.04 196.916C270.349 196.693 270.574 196.418 270.714 196.09V195.656C270.714 194.945 270.56 194.367 270.251 193.922C269.943 193.477 269.552 193.254 269.08 193.254C268.603 193.254 268.22 193.437 267.931 193.805C267.642 194.168 267.497 194.648 267.497 195.246C267.497 195.828 267.636 196.309 267.914 196.687C268.195 197.062 268.57 197.25 269.039 197.25Z" fill="#EEEEF7"/>
<rect x="303" y="171" width="66" height="52" fill="white"/>
<circle cx="335.5" cy="196.5" r="19.5" fill="#0088F0"/>
<path d="M332.247 201H331.158V193.775L328.972 194.578V193.594L332.078 192.428H332.247V201ZM340.773 197.361C340.773 198.631 340.556 199.574 340.122 200.191C339.689 200.809 339.011 201.117 338.089 201.117C337.179 201.117 336.505 200.816 336.068 200.215C335.63 199.609 335.404 198.707 335.388 197.508V196.061C335.388 194.807 335.605 193.875 336.039 193.266C336.472 192.656 337.152 192.352 338.078 192.352C338.996 192.352 339.671 192.646 340.105 193.236C340.539 193.822 340.761 194.728 340.773 195.955V197.361ZM339.689 195.879C339.689 194.961 339.56 194.293 339.302 193.875C339.044 193.453 338.636 193.242 338.078 193.242C337.523 193.242 337.119 193.451 336.865 193.869C336.611 194.287 336.48 194.93 336.472 195.797V197.531C336.472 198.453 336.605 199.135 336.871 199.576C337.14 200.014 337.546 200.232 338.089 200.232C338.624 200.232 339.021 200.025 339.279 199.611C339.54 199.197 339.677 198.545 339.689 197.654V195.879Z" fill="#EEEEF7"/>
<rect x="369" y="171" width="66" height="52" fill="white"/>
<path d="M398.247 201H397.158V193.775L394.972 194.578V193.594L398.078 192.428H398.247V201ZM404.986 201H403.896V193.775L401.71 194.578V193.594L404.816 192.428H404.986V201Z" fill="#172755"/>
<rect x="435" y="171" width="66" height="52" fill="white"/>
<path d="M464.247 201H463.158V193.775L460.972 194.578V193.594L464.078 192.428H464.247V201ZM473.013 201H467.423V200.221L470.376 196.939C470.814 196.443 471.115 196.041 471.279 195.732C471.447 195.42 471.531 195.098 471.531 194.766C471.531 194.32 471.396 193.955 471.126 193.67C470.857 193.385 470.497 193.242 470.048 193.242C469.509 193.242 469.089 193.396 468.789 193.705C468.492 194.01 468.343 194.436 468.343 194.982H467.259C467.259 194.197 467.511 193.562 468.015 193.078C468.523 192.594 469.201 192.352 470.048 192.352C470.841 192.352 471.468 192.561 471.929 192.978C472.39 193.393 472.621 193.945 472.621 194.637C472.621 195.477 472.085 196.477 471.015 197.637L468.73 200.115H473.013V201Z" fill="#172755"/>
<rect x="501" y="171" width="66" height="52" fill="white"/>
<path d="M530.247 201H529.158V193.775L526.972 194.578V193.594L530.078 192.428H530.247V201ZM534.999 196.207H535.814C536.326 196.199 536.728 196.064 537.021 195.803C537.314 195.541 537.46 195.187 537.46 194.742C537.46 193.742 536.962 193.242 535.966 193.242C535.497 193.242 535.122 193.377 534.841 193.646C534.564 193.912 534.425 194.266 534.425 194.707H533.341C533.341 194.031 533.587 193.471 534.08 193.025C534.576 192.576 535.205 192.352 535.966 192.352C536.771 192.352 537.402 192.564 537.859 192.99C538.316 193.416 538.544 194.008 538.544 194.766C538.544 195.137 538.423 195.496 538.181 195.844C537.943 196.191 537.617 196.451 537.203 196.623C537.671 196.771 538.033 197.018 538.287 197.361C538.544 197.705 538.673 198.125 538.673 198.621C538.673 199.387 538.423 199.994 537.923 200.443C537.423 200.893 536.773 201.117 535.972 201.117C535.171 201.117 534.519 200.9 534.015 200.467C533.515 200.033 533.265 199.461 533.265 198.75H534.355C534.355 199.199 534.501 199.559 534.794 199.828C535.087 200.098 535.48 200.232 535.972 200.232C536.496 200.232 536.896 200.096 537.173 199.822C537.451 199.549 537.589 199.156 537.589 198.645C537.589 198.148 537.437 197.768 537.132 197.502C536.828 197.236 536.388 197.1 535.814 197.092H534.999V196.207Z" fill="#172755"/>
<rect x="105" y="223" width="66" height="52" fill="white"/>
<path d="M134.247 253H133.158V245.775L130.972 246.578V245.594L134.078 244.428H134.247V253ZM141.999 250.135H143.183V251.02H141.999V253H140.91V251.02H137.025V250.381L140.845 244.469H141.999V250.135ZM138.255 250.135H140.91V245.951L140.781 246.186L138.255 250.135Z" fill="#172755"/>
<rect x="171" y="223" width="66" height="52" fill="white"/>
<path d="M200.247 253H199.158V245.775L196.972 246.578V245.594L200.078 244.428H200.247V253ZM203.921 248.723L204.355 244.469H208.726V245.471H205.275L205.017 247.797C205.435 247.551 205.91 247.428 206.441 247.428C207.218 247.428 207.835 247.686 208.292 248.201C208.749 248.713 208.978 249.406 208.978 250.281C208.978 251.16 208.74 251.853 208.263 252.361C207.79 252.865 207.128 253.117 206.277 253.117C205.523 253.117 204.908 252.908 204.431 252.49C203.955 252.072 203.683 251.494 203.617 250.756H204.642C204.708 251.244 204.882 251.613 205.164 251.863C205.445 252.109 205.816 252.232 206.277 252.232C206.781 252.232 207.175 252.061 207.46 251.717C207.749 251.373 207.894 250.898 207.894 250.293C207.894 249.723 207.738 249.266 207.425 248.922C207.117 248.574 206.705 248.4 206.189 248.4C205.716 248.4 205.345 248.504 205.076 248.711L204.789 248.945L203.921 248.723Z" fill="#172755"/>
<rect x="237" y="223" width="66" height="52" fill="white"/>
<path d="M266.247 253H265.158V245.775L262.972 246.578V245.594L266.078 244.428H266.247V253ZM273.677 244.463V245.383H273.478C272.634 245.398 271.962 245.648 271.462 246.133C270.962 246.617 270.673 247.299 270.595 248.178C271.044 247.662 271.658 247.404 272.435 247.404C273.177 247.404 273.769 247.666 274.21 248.189C274.656 248.713 274.878 249.389 274.878 250.217C274.878 251.096 274.638 251.799 274.158 252.326C273.681 252.853 273.04 253.117 272.236 253.117C271.419 253.117 270.757 252.805 270.249 252.18C269.742 251.551 269.488 250.742 269.488 249.754V249.338C269.488 247.768 269.822 246.568 270.49 245.74C271.162 244.908 272.16 244.482 273.484 244.463H273.677ZM272.253 248.307C271.882 248.307 271.54 248.418 271.228 248.641C270.915 248.863 270.699 249.143 270.578 249.478V249.877C270.578 250.58 270.736 251.146 271.052 251.576C271.369 252.006 271.763 252.221 272.236 252.221C272.724 252.221 273.107 252.041 273.384 251.682C273.665 251.322 273.806 250.852 273.806 250.27C273.806 249.684 273.664 249.211 273.378 248.852C273.097 248.488 272.722 248.307 272.253 248.307Z" fill="#172755"/>
<rect x="303" y="223" width="66" height="52" fill="white"/>
<path d="M332.247 253H331.158V245.775L328.972 246.578V245.594L332.078 244.428H332.247V253ZM340.931 245.078L337.398 253H336.261L339.783 245.359H335.165V244.469H340.931V245.078Z" fill="#172755"/>
<rect x="369" y="223" width="66" height="52" fill="white"/>
<circle cx="401.5" cy="248.5" r="19.5" fill="#EF2A82"/>
<path d="M398.247 253H397.158V245.775L394.972 246.578V245.594L398.078 244.428H398.247V253ZM406.597 246.695C406.597 247.121 406.484 247.5 406.257 247.832C406.035 248.164 405.732 248.424 405.349 248.611C405.794 248.803 406.146 249.082 406.404 249.449C406.665 249.816 406.796 250.232 406.796 250.697C406.796 251.436 406.546 252.023 406.046 252.461C405.55 252.898 404.896 253.117 404.083 253.117C403.263 253.117 402.605 252.898 402.109 252.461C401.617 252.02 401.371 251.432 401.371 250.697C401.371 250.236 401.496 249.82 401.746 249.449C401.999 249.078 402.349 248.797 402.794 248.605C402.415 248.418 402.117 248.158 401.898 247.826C401.679 247.494 401.57 247.117 401.57 246.695C401.57 245.977 401.8 245.406 402.261 244.984C402.722 244.562 403.33 244.352 404.083 244.352C404.833 244.352 405.439 244.562 405.9 244.984C406.365 245.406 406.597 245.977 406.597 246.695ZM405.712 250.674C405.712 250.197 405.56 249.809 405.255 249.508C404.955 249.207 404.56 249.057 404.072 249.057C403.583 249.057 403.191 249.205 402.894 249.502C402.601 249.799 402.455 250.189 402.455 250.674C402.455 251.158 402.597 251.539 402.882 251.816C403.171 252.094 403.572 252.232 404.083 252.232C404.591 252.232 404.99 252.094 405.279 251.816C405.568 251.535 405.712 251.154 405.712 250.674ZM404.083 245.242C403.658 245.242 403.312 245.375 403.046 245.641C402.785 245.902 402.654 246.26 402.654 246.713C402.654 247.146 402.783 247.498 403.04 247.768C403.302 248.033 403.65 248.166 404.083 248.166C404.517 248.166 404.863 248.033 405.121 247.768C405.382 247.498 405.513 247.146 405.513 246.713C405.513 246.279 405.378 245.926 405.109 245.652C404.839 245.379 404.497 245.242 404.083 245.242Z" fill="#EEEEF7"/>
<rect x="435" y="223" width="66" height="52" fill="white"/>
<path d="M464.247 253H463.158V245.775L460.972 246.578V245.594L464.078 244.428H464.247V253ZM471.578 249.25C471.351 249.52 471.08 249.736 470.763 249.9C470.451 250.064 470.107 250.146 469.732 250.146C469.24 250.146 468.81 250.025 468.443 249.783C468.08 249.541 467.798 249.201 467.599 248.764C467.4 248.322 467.3 247.836 467.3 247.305C467.3 246.734 467.408 246.221 467.622 245.764C467.841 245.307 468.15 244.957 468.548 244.715C468.947 244.473 469.412 244.352 469.943 244.352C470.787 244.352 471.451 244.668 471.935 245.301C472.423 245.93 472.667 246.789 472.667 247.879V248.195C472.667 249.855 472.339 251.068 471.683 251.834C471.027 252.596 470.037 252.986 468.712 253.006H468.501V252.092H468.73C469.624 252.076 470.312 251.844 470.792 251.395C471.273 250.941 471.535 250.227 471.578 249.25ZM469.908 249.25C470.271 249.25 470.605 249.139 470.91 248.916C471.218 248.693 471.443 248.418 471.583 248.09V247.656C471.583 246.945 471.429 246.367 471.121 245.922C470.812 245.477 470.421 245.254 469.949 245.254C469.472 245.254 469.089 245.437 468.8 245.805C468.511 246.168 468.367 246.648 468.367 247.246C468.367 247.828 468.505 248.309 468.783 248.687C469.064 249.062 469.439 249.25 469.908 249.25Z" fill="#172755"/>
<rect x="501" y="223" width="66" height="52" fill="white"/>
<path d="M532.275 253H526.685V252.221L529.638 248.939C530.076 248.443 530.376 248.041 530.54 247.732C530.708 247.42 530.792 247.098 530.792 246.766C530.792 246.32 530.658 245.955 530.388 245.67C530.119 245.385 529.759 245.242 529.31 245.242C528.771 245.242 528.351 245.396 528.05 245.705C527.753 246.01 527.605 246.436 527.605 246.982H526.521C526.521 246.197 526.773 245.562 527.277 245.078C527.785 244.594 528.462 244.352 529.31 244.352C530.103 244.352 530.73 244.561 531.191 244.978C531.652 245.393 531.882 245.945 531.882 246.637C531.882 247.477 531.347 248.477 530.277 249.637L527.992 252.115H532.275V253ZM538.773 249.361C538.773 250.631 538.556 251.574 538.122 252.191C537.689 252.809 537.011 253.117 536.089 253.117C535.179 253.117 534.505 252.816 534.068 252.215C533.63 251.609 533.404 250.707 533.388 249.508V248.061C533.388 246.807 533.605 245.875 534.039 245.266C534.472 244.656 535.152 244.352 536.078 244.352C536.996 244.352 537.671 244.646 538.105 245.236C538.539 245.822 538.761 246.728 538.773 247.955V249.361ZM537.689 247.879C537.689 246.961 537.56 246.293 537.302 245.875C537.044 245.453 536.636 245.242 536.078 245.242C535.523 245.242 535.119 245.451 534.865 245.869C534.611 246.287 534.48 246.93 534.472 247.797V249.531C534.472 250.453 534.605 251.135 534.871 251.576C535.14 252.014 535.546 252.232 536.089 252.232C536.624 252.232 537.021 252.025 537.279 251.611C537.54 251.197 537.677 250.545 537.689 249.654V247.879Z" fill="#172755"/>
<rect x="105" y="275" width="66" height="52" fill="white"/>
<path d="M136.275 305H130.685V304.221L133.638 300.939C134.076 300.443 134.376 300.041 134.54 299.732C134.708 299.42 134.792 299.098 134.792 298.766C134.792 298.32 134.658 297.955 134.388 297.67C134.119 297.385 133.759 297.242 133.31 297.242C132.771 297.242 132.351 297.396 132.05 297.705C131.753 298.01 131.605 298.436 131.605 298.982H130.521C130.521 298.197 130.773 297.562 131.277 297.078C131.785 296.594 132.462 296.352 133.31 296.352C134.103 296.352 134.73 296.561 135.191 296.978C135.652 297.393 135.882 297.945 135.882 298.637C135.882 299.477 135.347 300.477 134.277 301.637L131.992 304.115H136.275V305ZM140.986 305H139.896V297.775L137.71 298.578V297.594L140.816 296.428H140.986V305Z" fill="#172755"/>
<rect x="171" y="275" width="66" height="52" fill="white"/>
<path d="M202.275 305H196.685V304.221L199.638 300.939C200.076 300.443 200.376 300.041 200.54 299.732C200.708 299.42 200.792 299.098 200.792 298.766C200.792 298.32 200.658 297.955 200.388 297.67C200.119 297.385 199.759 297.242 199.31 297.242C198.771 297.242 198.351 297.396 198.05 297.705C197.753 298.01 197.605 298.436 197.605 298.982H196.521C196.521 298.197 196.773 297.562 197.277 297.078C197.785 296.594 198.462 296.352 199.31 296.352C200.103 296.352 200.73 296.561 201.191 296.978C201.652 297.393 201.882 297.945 201.882 298.637C201.882 299.477 201.347 300.477 200.277 301.637L197.992 304.115H202.275V305ZM209.013 305H203.423V304.221L206.376 300.939C206.814 300.443 207.115 300.041 207.279 299.732C207.447 299.42 207.531 299.098 207.531 298.766C207.531 298.32 207.396 297.955 207.126 297.67C206.857 297.385 206.497 297.242 206.048 297.242C205.509 297.242 205.089 297.396 204.789 297.705C204.492 298.01 204.343 298.436 204.343 298.982H203.259C203.259 298.197 203.511 297.562 204.015 297.078C204.523 296.594 205.201 296.352 206.048 296.352C206.841 296.352 207.468 296.561 207.929 296.978C208.39 297.393 208.621 297.945 208.621 298.637C208.621 299.477 208.085 300.477 207.015 301.637L204.73 304.115H209.013V305Z" fill="#172755"/>
<rect x="237" y="275" width="66" height="52" fill="white"/>
<path d="M268.275 305H262.685V304.221L265.638 300.939C266.076 300.443 266.376 300.041 266.54 299.732C266.708 299.42 266.792 299.098 266.792 298.766C266.792 298.32 266.658 297.955 266.388 297.67C266.119 297.385 265.759 297.242 265.31 297.242C264.771 297.242 264.351 297.396 264.05 297.705C263.753 298.01 263.605 298.436 263.605 298.982H262.521C262.521 298.197 262.773 297.562 263.277 297.078C263.785 296.594 264.462 296.352 265.31 296.352C266.103 296.352 266.73 296.561 267.191 296.978C267.652 297.393 267.882 297.945 267.882 298.637C267.882 299.477 267.347 300.477 266.277 301.637L263.992 304.115H268.275V305ZM270.999 300.207H271.814C272.326 300.199 272.728 300.064 273.021 299.803C273.314 299.541 273.46 299.187 273.46 298.742C273.46 297.742 272.962 297.242 271.966 297.242C271.497 297.242 271.122 297.377 270.841 297.646C270.564 297.912 270.425 298.266 270.425 298.707H269.341C269.341 298.031 269.587 297.471 270.08 297.025C270.576 296.576 271.205 296.352 271.966 296.352C272.771 296.352 273.402 296.564 273.859 296.99C274.316 297.416 274.544 298.008 274.544 298.766C274.544 299.137 274.423 299.496 274.181 299.844C273.943 300.191 273.617 300.451 273.203 300.623C273.671 300.771 274.033 301.018 274.287 301.361C274.544 301.705 274.673 302.125 274.673 302.621C274.673 303.387 274.423 303.994 273.923 304.443C273.423 304.893 272.773 305.117 271.972 305.117C271.171 305.117 270.519 304.9 270.015 304.467C269.515 304.033 269.265 303.461 269.265 302.75H270.355C270.355 303.199 270.501 303.559 270.794 303.828C271.087 304.098 271.48 304.232 271.972 304.232C272.496 304.232 272.896 304.096 273.173 303.822C273.451 303.549 273.589 303.156 273.589 302.645C273.589 302.148 273.437 301.768 273.132 301.502C272.828 301.236 272.388 301.1 271.814 301.092H270.999V300.207Z" fill="#172755"/>
<rect x="303" y="275" width="66" height="52" fill="white"/>
<path d="M334.275 305H328.685V304.221L331.638 300.939C332.076 300.443 332.376 300.041 332.54 299.732C332.708 299.42 332.792 299.098 332.792 298.766C332.792 298.32 332.658 297.955 332.388 297.67C332.119 297.385 331.759 297.242 331.31 297.242C330.771 297.242 330.351 297.396 330.05 297.705C329.753 298.01 329.605 298.436 329.605 298.982H328.521C328.521 298.197 328.773 297.562 329.277 297.078C329.785 296.594 330.462 296.352 331.31 296.352C332.103 296.352 332.73 296.561 333.191 296.978C333.652 297.393 333.882 297.945 333.882 298.637C333.882 299.477 333.347 300.477 332.277 301.637L329.992 304.115H334.275V305ZM339.999 302.135H341.183V303.02H339.999V305H338.91V303.02H335.025V302.381L338.845 296.469H339.999V302.135ZM336.255 302.135H338.91V297.951L338.781 298.186L336.255 302.135Z" fill="#172755"/>
<rect x="369" y="275" width="66" height="52" fill="white"/>
<path d="M400.275 305H394.685V304.221L397.638 300.939C398.076 300.443 398.376 300.041 398.54 299.732C398.708 299.42 398.792 299.098 398.792 298.766C398.792 298.32 398.658 297.955 398.388 297.67C398.119 297.385 397.759 297.242 397.31 297.242C396.771 297.242 396.351 297.396 396.05 297.705C395.753 298.01 395.605 298.436 395.605 298.982H394.521C394.521 298.197 394.773 297.562 395.277 297.078C395.785 296.594 396.462 296.352 397.31 296.352C398.103 296.352 398.73 296.561 399.191 296.978C399.652 297.393 399.882 297.945 399.882 298.637C399.882 299.477 399.347 300.477 398.277 301.637L395.992 304.115H400.275V305ZM401.921 300.723L402.355 296.469H406.726V297.471H403.275L403.017 299.797C403.435 299.551 403.91 299.428 404.441 299.428C405.218 299.428 405.835 299.686 406.292 300.201C406.749 300.713 406.978 301.406 406.978 302.281C406.978 303.16 406.74 303.853 406.263 304.361C405.79 304.865 405.128 305.117 404.277 305.117C403.523 305.117 402.908 304.908 402.431 304.49C401.955 304.072 401.683 303.494 401.617 302.756H402.642C402.708 303.244 402.882 303.613 403.164 303.863C403.445 304.109 403.816 304.232 404.277 304.232C404.781 304.232 405.175 304.061 405.46 303.717C405.749 303.373 405.894 302.898 405.894 302.293C405.894 301.723 405.738 301.266 405.425 300.922C405.117 300.574 404.705 300.4 404.189 300.4C403.716 300.4 403.345 300.504 403.076 300.711L402.789 300.945L401.921 300.723Z" fill="#172755"/>
<rect x="435" y="275" width="66" height="52" fill="white"/>
<path d="M466.275 305H460.685V304.221L463.638 300.939C464.076 300.443 464.376 300.041 464.54 299.732C464.708 299.42 464.792 299.098 464.792 298.766C464.792 298.32 464.658 297.955 464.388 297.67C464.119 297.385 463.759 297.242 463.31 297.242C462.771 297.242 462.351 297.396 462.05 297.705C461.753 298.01 461.605 298.436 461.605 298.982H460.521C460.521 298.197 460.773 297.562 461.277 297.078C461.785 296.594 462.462 296.352 463.31 296.352C464.103 296.352 464.73 296.561 465.191 296.978C465.652 297.393 465.882 297.945 465.882 298.637C465.882 299.477 465.347 300.477 464.277 301.637L461.992 304.115H466.275V305ZM471.677 296.463V297.383H471.478C470.634 297.398 469.962 297.648 469.462 298.133C468.962 298.617 468.673 299.299 468.595 300.178C469.044 299.662 469.658 299.404 470.435 299.404C471.177 299.404 471.769 299.666 472.21 300.189C472.656 300.713 472.878 301.389 472.878 302.217C472.878 303.096 472.638 303.799 472.158 304.326C471.681 304.853 471.04 305.117 470.236 305.117C469.419 305.117 468.757 304.805 468.249 304.18C467.742 303.551 467.488 302.742 467.488 301.754V301.338C467.488 299.768 467.822 298.568 468.49 297.74C469.162 296.908 470.16 296.482 471.484 296.463H471.677ZM470.253 300.307C469.882 300.307 469.54 300.418 469.228 300.641C468.915 300.863 468.699 301.143 468.578 301.478V301.877C468.578 302.58 468.736 303.146 469.052 303.576C469.369 304.006 469.763 304.221 470.236 304.221C470.724 304.221 471.107 304.041 471.384 303.682C471.665 303.322 471.806 302.852 471.806 302.27C471.806 301.684 471.664 301.211 471.378 300.852C471.097 300.488 470.722 300.307 470.253 300.307Z" fill="#172755"/>
<rect x="501" y="275" width="66" height="52" fill="white"/>
<path d="M532.275 305H526.685V304.221L529.638 300.939C530.076 300.443 530.376 300.041 530.54 299.732C530.708 299.42 530.792 299.098 530.792 298.766C530.792 298.32 530.658 297.955 530.388 297.67C530.119 297.385 529.759 297.242 529.31 297.242C528.771 297.242 528.351 297.396 528.05 297.705C527.753 298.01 527.605 298.436 527.605 298.982H526.521C526.521 298.197 526.773 297.562 527.277 297.078C527.785 296.594 528.462 296.352 529.31 296.352C530.103 296.352 530.73 296.561 531.191 296.978C531.652 297.393 531.882 297.945 531.882 298.637C531.882 299.477 531.347 300.477 530.277 301.637L527.992 304.115H532.275V305ZM538.931 297.078L535.398 305H534.261L537.783 297.359H533.165V296.469H538.931V297.078Z" fill="#172755"/>
<rect x="105" y="327" width="66" height="52" fill="white"/>
<path d="M136.275 357H130.685V356.221L133.638 352.939C134.076 352.443 134.376 352.041 134.54 351.732C134.708 351.42 134.792 351.098 134.792 350.766C134.792 350.32 134.658 349.955 134.388 349.67C134.119 349.385 133.759 349.242 133.31 349.242C132.771 349.242 132.351 349.396 132.05 349.705C131.753 350.01 131.605 350.436 131.605 350.982H130.521C130.521 350.197 130.773 349.562 131.277 349.078C131.785 348.594 132.462 348.352 133.31 348.352C134.103 348.352 134.73 348.561 135.191 348.979C135.652 349.393 135.882 349.945 135.882 350.637C135.882 351.477 135.347 352.477 134.277 353.637L131.992 356.115H136.275V357ZM142.597 350.695C142.597 351.121 142.484 351.5 142.257 351.832C142.035 352.164 141.732 352.424 141.349 352.611C141.794 352.803 142.146 353.082 142.404 353.449C142.665 353.816 142.796 354.232 142.796 354.697C142.796 355.436 142.546 356.023 142.046 356.461C141.55 356.898 140.896 357.117 140.083 357.117C139.263 357.117 138.605 356.898 138.109 356.461C137.617 356.02 137.371 355.432 137.371 354.697C137.371 354.236 137.496 353.82 137.746 353.449C137.999 353.078 138.349 352.797 138.794 352.605C138.415 352.418 138.117 352.158 137.898 351.826C137.679 351.494 137.57 351.117 137.57 350.695C137.57 349.977 137.8 349.406 138.261 348.984C138.722 348.562 139.33 348.352 140.083 348.352C140.833 348.352 141.439 348.562 141.9 348.984C142.365 349.406 142.597 349.977 142.597 350.695ZM141.712 354.674C141.712 354.197 141.56 353.809 141.255 353.508C140.955 353.207 140.56 353.057 140.072 353.057C139.583 353.057 139.191 353.205 138.894 353.502C138.601 353.799 138.455 354.189 138.455 354.674C138.455 355.158 138.597 355.539 138.882 355.816C139.171 356.094 139.572 356.232 140.083 356.232C140.591 356.232 140.99 356.094 141.279 355.816C141.568 355.535 141.712 355.154 141.712 354.674ZM140.083 349.242C139.658 349.242 139.312 349.375 139.046 349.641C138.785 349.902 138.654 350.26 138.654 350.713C138.654 351.146 138.783 351.498 139.04 351.768C139.302 352.033 139.65 352.166 140.083 352.166C140.517 352.166 140.863 352.033 141.121 351.768C141.382 351.498 141.513 351.146 141.513 350.713C141.513 350.279 141.378 349.926 141.109 349.652C140.839 349.379 140.497 349.242 140.083 349.242Z" fill="#172755"/>
<rect x="171" y="327" width="66" height="52" fill="white"/>
<path d="M202.275 357H196.685V356.221L199.638 352.939C200.076 352.443 200.376 352.041 200.54 351.732C200.708 351.42 200.792 351.098 200.792 350.766C200.792 350.32 200.658 349.955 200.388 349.67C200.119 349.385 199.759 349.242 199.31 349.242C198.771 349.242 198.351 349.396 198.05 349.705C197.753 350.01 197.605 350.436 197.605 350.982H196.521C196.521 350.197 196.773 349.562 197.277 349.078C197.785 348.594 198.462 348.352 199.31 348.352C200.103 348.352 200.73 348.561 201.191 348.979C201.652 349.393 201.882 349.945 201.882 350.637C201.882 351.477 201.347 352.477 200.277 353.637L197.992 356.115H202.275V357ZM207.578 353.25C207.351 353.52 207.08 353.736 206.763 353.9C206.451 354.064 206.107 354.146 205.732 354.146C205.24 354.146 204.81 354.025 204.443 353.783C204.08 353.541 203.798 353.201 203.599 352.764C203.4 352.322 203.3 351.836 203.3 351.305C203.3 350.734 203.408 350.221 203.622 349.764C203.841 349.307 204.15 348.957 204.548 348.715C204.947 348.473 205.412 348.352 205.943 348.352C206.787 348.352 207.451 348.668 207.935 349.301C208.423 349.93 208.667 350.789 208.667 351.879V352.195C208.667 353.855 208.339 355.068 207.683 355.834C207.027 356.596 206.037 356.986 204.712 357.006H204.501V356.092H204.73C205.624 356.076 206.312 355.844 206.792 355.395C207.273 354.941 207.535 354.227 207.578 353.25ZM205.908 353.25C206.271 353.25 206.605 353.139 206.91 352.916C207.218 352.693 207.443 352.418 207.583 352.09V351.656C207.583 350.945 207.429 350.367 207.121 349.922C206.812 349.477 206.421 349.254 205.949 349.254C205.472 349.254 205.089 349.438 204.8 349.805C204.511 350.168 204.367 350.648 204.367 351.246C204.367 351.828 204.505 352.309 204.783 352.688C205.064 353.062 205.439 353.25 205.908 353.25Z" fill="#172755"/>
<rect x="237" y="327" width="66" height="52" fill="white"/>
<path d="M264.261 352.207H265.076C265.587 352.199 265.99 352.064 266.283 351.803C266.576 351.541 266.722 351.188 266.722 350.742C266.722 349.742 266.224 349.242 265.228 349.242C264.759 349.242 264.384 349.377 264.103 349.646C263.826 349.912 263.687 350.266 263.687 350.707H262.603C262.603 350.031 262.849 349.471 263.341 349.025C263.837 348.576 264.466 348.352 265.228 348.352C266.033 348.352 266.664 348.564 267.121 348.99C267.578 349.416 267.806 350.008 267.806 350.766C267.806 351.137 267.685 351.496 267.443 351.844C267.205 352.191 266.878 352.451 266.464 352.623C266.933 352.771 267.294 353.018 267.548 353.361C267.806 353.705 267.935 354.125 267.935 354.621C267.935 355.387 267.685 355.994 267.185 356.443C266.685 356.893 266.035 357.117 265.234 357.117C264.433 357.117 263.781 356.9 263.277 356.467C262.777 356.033 262.527 355.461 262.527 354.75H263.617C263.617 355.199 263.763 355.559 264.056 355.828C264.349 356.098 264.742 356.232 265.234 356.232C265.757 356.232 266.158 356.096 266.435 355.822C266.712 355.549 266.851 355.156 266.851 354.645C266.851 354.148 266.699 353.768 266.394 353.502C266.089 353.236 265.65 353.1 265.076 353.092H264.261V352.207ZM274.773 353.361C274.773 354.631 274.556 355.574 274.122 356.191C273.689 356.809 273.011 357.117 272.089 357.117C271.179 357.117 270.505 356.816 270.068 356.215C269.63 355.609 269.404 354.707 269.388 353.508V352.061C269.388 350.807 269.605 349.875 270.039 349.266C270.472 348.656 271.152 348.352 272.078 348.352C272.996 348.352 273.671 348.646 274.105 349.236C274.539 349.822 274.761 350.729 274.773 351.955V353.361ZM273.689 351.879C273.689 350.961 273.56 350.293 273.302 349.875C273.044 349.453 272.636 349.242 272.078 349.242C271.523 349.242 271.119 349.451 270.865 349.869C270.611 350.287 270.48 350.93 270.472 351.797V353.531C270.472 354.453 270.605 355.135 270.871 355.576C271.14 356.014 271.546 356.232 272.089 356.232C272.624 356.232 273.021 356.025 273.279 355.611C273.54 355.197 273.677 354.545 273.689 353.654V351.879Z" fill="#172755"/>
<rect x="303" y="327" width="66" height="52" fill="white"/>
<path d="M330.261 352.207H331.076C331.587 352.199 331.99 352.064 332.283 351.803C332.576 351.541 332.722 351.188 332.722 350.742C332.722 349.742 332.224 349.242 331.228 349.242C330.759 349.242 330.384 349.377 330.103 349.646C329.826 349.912 329.687 350.266 329.687 350.707H328.603C328.603 350.031 328.849 349.471 329.341 349.025C329.837 348.576 330.466 348.352 331.228 348.352C332.033 348.352 332.664 348.564 333.121 348.99C333.578 349.416 333.806 350.008 333.806 350.766C333.806 351.137 333.685 351.496 333.443 351.844C333.205 352.191 332.878 352.451 332.464 352.623C332.933 352.771 333.294 353.018 333.548 353.361C333.806 353.705 333.935 354.125 333.935 354.621C333.935 355.387 333.685 355.994 333.185 356.443C332.685 356.893 332.035 357.117 331.234 357.117C330.433 357.117 329.781 356.9 329.277 356.467C328.777 356.033 328.527 355.461 328.527 354.75H329.617C329.617 355.199 329.763 355.559 330.056 355.828C330.349 356.098 330.742 356.232 331.234 356.232C331.757 356.232 332.158 356.096 332.435 355.822C332.712 355.549 332.851 355.156 332.851 354.645C332.851 354.148 332.699 353.768 332.394 353.502C332.089 353.236 331.65 353.1 331.076 353.092H330.261V352.207ZM338.986 357H337.896V349.775L335.71 350.578V349.594L338.816 348.428H338.986V357Z" fill="#172755"/>
<rect x="369" y="327" width="66" height="52" fill="white"/>
<rect x="435" y="327" width="66" height="52" fill="white"/>
<rect x="501" y="327" width="66" height="52" fill="white"/>
<path d="M124.803 78.4688L127.592 85.4297L130.381 78.4688H131.84V87H130.715V83.6777L130.82 80.0918L128.02 87H127.158L124.363 80.1094L124.475 83.6777V87H123.35V78.4688H124.803ZM140.389 83.0098C140.389 83.8457 140.248 84.5762 139.967 85.2012C139.686 85.8223 139.287 86.2969 138.771 86.625C138.256 86.9531 137.654 87.1172 136.967 87.1172C136.295 87.1172 135.699 86.9531 135.18 86.625C134.66 86.293 134.256 85.8223 133.967 85.2129C133.682 84.5996 133.535 83.8906 133.527 83.0859V82.4707C133.527 81.6504 133.67 80.9258 133.955 80.2969C134.24 79.668 134.643 79.1875 135.162 78.8555C135.686 78.5195 136.283 78.3516 136.955 78.3516C137.639 78.3516 138.24 78.5176 138.76 78.8496C139.283 79.1777 139.686 79.6562 139.967 80.2852C140.248 80.9102 140.389 81.6387 140.389 82.4707V83.0098ZM139.27 82.459C139.27 81.4473 139.066 80.6719 138.66 80.1328C138.254 79.5898 137.686 79.3184 136.955 79.3184C136.244 79.3184 135.684 79.5898 135.273 80.1328C134.867 80.6719 134.658 81.4219 134.646 82.3828V83.0098C134.646 83.9902 134.852 84.7617 135.262 85.3242C135.676 85.8828 136.244 86.1621 136.967 86.1621C137.693 86.1621 138.256 85.8984 138.654 85.3711C139.053 84.8398 139.258 84.0801 139.27 83.0918V82.459ZM148.633 87H147.502L143.207 80.4258V87H142.076V78.4688H143.207L147.514 85.0723V78.4688H148.633V87Z" fill="#8794BA"/>
<path d="M198.004 79.3945H195.262V87H194.143V79.3945H191.406V78.4688H198.004V79.3945ZM205.275 78.4688V84.2695C205.271 85.0742 205.018 85.7324 204.514 86.2441C204.014 86.7559 203.334 87.043 202.475 87.1055L202.176 87.1172C201.242 87.1172 200.498 86.8652 199.943 86.3613C199.389 85.8574 199.107 85.1641 199.1 84.2812V78.4688H200.213V84.2461C200.213 84.8633 200.383 85.3438 200.723 85.6875C201.062 86.0273 201.547 86.1973 202.176 86.1973C202.812 86.1973 203.299 86.0273 203.635 85.6875C203.975 85.3477 204.145 84.8691 204.145 84.252V78.4688H205.275ZM211.873 83.0566H208.176V86.0801H212.471V87H207.051V78.4688H212.412V79.3945H208.176V82.1367H211.873V83.0566Z" fill="#8794BA"/>
<path d="M258.156 84.3105L258.32 85.4355L258.561 84.4219L260.248 78.4688H261.197L262.844 84.4219L263.078 85.4531L263.26 84.3047L264.584 78.4688H265.715L263.646 87H262.621L260.863 80.7832L260.729 80.1328L260.594 80.7832L258.771 87H257.746L255.684 78.4688H256.809L258.156 84.3105ZM271.791 83.0566H268.094V86.0801H272.389V87H266.969V78.4688H272.33V79.3945H268.094V82.1367H271.791V83.0566ZM273.789 87V78.4688H276.197C276.939 78.4688 277.596 78.6328 278.166 78.9609C278.736 79.2891 279.176 79.7559 279.484 80.3613C279.797 80.9668 279.955 81.6621 279.959 82.4473V82.9922C279.959 83.7969 279.803 84.502 279.49 85.1074C279.182 85.7129 278.738 86.1777 278.16 86.502C277.586 86.8262 276.916 86.9922 276.15 87H273.789ZM274.914 79.3945V86.0801H276.098C276.965 86.0801 277.639 85.8105 278.119 85.2715C278.604 84.7324 278.846 83.9648 278.846 82.9688V82.4707C278.846 81.502 278.617 80.75 278.16 80.2148C277.707 79.6758 277.062 79.4023 276.227 79.3945H274.914Z" fill="#8794BA"/>
<path d="M329.137 79.3945H326.395V87H325.275V79.3945H322.539V78.4688H329.137V79.3945ZM336.959 87H335.828V83.0566H331.527V87H330.402V78.4688H331.527V82.1367H335.828V78.4688H336.959V87ZM344.963 78.4688V84.2695C344.959 85.0742 344.705 85.7324 344.201 86.2441C343.701 86.7559 343.021 87.043 342.162 87.1055L341.863 87.1172C340.93 87.1172 340.186 86.8652 339.631 86.3613C339.076 85.8574 338.795 85.1641 338.787 84.2812V78.4688H339.9V84.2461C339.9 84.8633 340.07 85.3438 340.41 85.6875C340.75 86.0273 341.234 86.1973 341.863 86.1973C342.5 86.1973 342.986 86.0273 343.322 85.6875C343.662 85.3477 343.832 84.8691 343.832 84.252V78.4688H344.963Z" fill="#8794BA"/>
<path d="M397.047 83.2324H393.467V87H392.342V78.4688H397.627V79.3945H393.467V82.3125H397.047V83.2324ZM402.104 83.5488H400.1V87H398.969V78.4688H401.793C402.754 78.4688 403.492 78.6875 404.008 79.125C404.527 79.5625 404.787 80.1992 404.787 81.0352C404.787 81.5664 404.643 82.0293 404.354 82.4238C404.068 82.8184 403.67 83.1133 403.158 83.3086L405.162 86.9297V87H403.955L402.104 83.5488ZM400.1 82.6289H401.828C402.387 82.6289 402.83 82.4844 403.158 82.1953C403.49 81.9062 403.656 81.5195 403.656 81.0352C403.656 80.5078 403.498 80.1035 403.182 79.8223C402.869 79.541 402.416 79.3984 401.822 79.3945H400.1V82.6289ZM407.576 87H406.451V78.4688H407.576V87Z" fill="#8794BA"/>
<path d="M458.828 83.1973C457.863 82.9199 457.16 82.5801 456.719 82.1777C456.281 81.7715 456.062 81.2715 456.062 80.6777C456.062 80.0059 456.33 79.4512 456.865 79.0137C457.404 78.5723 458.104 78.3516 458.963 78.3516C459.549 78.3516 460.07 78.4648 460.527 78.6914C460.988 78.918 461.344 79.2305 461.594 79.6289C461.848 80.0273 461.975 80.4629 461.975 80.9355H460.844C460.844 80.4199 460.68 80.0156 460.352 79.7227C460.023 79.4258 459.561 79.2773 458.963 79.2773C458.408 79.2773 457.975 79.4004 457.662 79.6465C457.354 79.8887 457.199 80.2266 457.199 80.6602C457.199 81.0078 457.346 81.3027 457.639 81.5449C457.936 81.7832 458.438 82.002 459.145 82.2012C459.855 82.4004 460.41 82.6211 460.809 82.8633C461.211 83.1016 461.508 83.3809 461.699 83.7012C461.895 84.0215 461.992 84.3984 461.992 84.832C461.992 85.5234 461.723 86.0781 461.184 86.4961C460.645 86.9102 459.924 87.1172 459.021 87.1172C458.436 87.1172 457.889 87.0059 457.381 86.7832C456.873 86.5566 456.48 86.248 456.203 85.8574C455.93 85.4668 455.793 85.0234 455.793 84.5273H456.924C456.924 85.043 457.113 85.4512 457.492 85.752C457.875 86.0488 458.385 86.1973 459.021 86.1973C459.615 86.1973 460.07 86.0762 460.387 85.834C460.703 85.5918 460.861 85.2617 460.861 84.8438C460.861 84.4258 460.715 84.1035 460.422 83.877C460.129 83.6465 459.598 83.4199 458.828 83.1973ZM468.15 84.7734H464.576L463.773 87H462.613L465.871 78.4688H466.855L470.119 87H468.965L468.15 84.7734ZM464.916 83.8477H467.816L466.363 79.8574L464.916 83.8477ZM476.4 79.3945H473.658V87H472.539V79.3945H469.803V78.4688H476.4V79.3945Z" fill="#8794BA"/>
<path d="M523.773 83.1973C522.809 82.9199 522.105 82.5801 521.664 82.1777C521.227 81.7715 521.008 81.2715 521.008 80.6777C521.008 80.0059 521.275 79.4512 521.811 79.0137C522.35 78.5723 523.049 78.3516 523.908 78.3516C524.494 78.3516 525.016 78.4648 525.473 78.6914C525.934 78.918 526.289 79.2305 526.539 79.6289C526.793 80.0273 526.92 80.4629 526.92 80.9355H525.789C525.789 80.4199 525.625 80.0156 525.297 79.7227C524.969 79.4258 524.506 79.2773 523.908 79.2773C523.354 79.2773 522.92 79.4004 522.607 79.6465C522.299 79.8887 522.145 80.2266 522.145 80.6602C522.145 81.0078 522.291 81.3027 522.584 81.5449C522.881 81.7832 523.383 82.002 524.09 82.2012C524.801 82.4004 525.355 82.6211 525.754 82.8633C526.156 83.1016 526.453 83.3809 526.645 83.7012C526.84 84.0215 526.938 84.3984 526.938 84.832C526.938 85.5234 526.668 86.0781 526.129 86.4961C525.59 86.9102 524.869 87.1172 523.967 87.1172C523.381 87.1172 522.834 87.0059 522.326 86.7832C521.818 86.5566 521.426 86.248 521.148 85.8574C520.875 85.4668 520.738 85.0234 520.738 84.5273H521.869C521.869 85.043 522.059 85.4512 522.438 85.752C522.82 86.0488 523.33 86.1973 523.967 86.1973C524.561 86.1973 525.016 86.0762 525.332 85.834C525.648 85.5918 525.807 85.2617 525.807 84.8438C525.807 84.4258 525.66 84.1035 525.367 83.877C525.074 83.6465 524.543 83.4199 523.773 83.1973ZM534.391 78.4688V84.2695C534.387 85.0742 534.133 85.7324 533.629 86.2441C533.129 86.7559 532.449 87.043 531.59 87.1055L531.291 87.1172C530.357 87.1172 529.613 86.8652 529.059 86.3613C528.504 85.8574 528.223 85.1641 528.215 84.2812V78.4688H529.328V84.2461C529.328 84.8633 529.498 85.3438 529.838 85.6875C530.178 86.0273 530.662 86.1973 531.291 86.1973C531.928 86.1973 532.414 86.0273 532.75 85.6875C533.09 85.3477 533.26 84.8691 533.26 84.252V78.4688H534.391ZM542.723 87H541.592L537.297 80.4258V87H536.166V78.4688H537.297L541.604 85.0723V78.4688H542.723V87Z" fill="#8794BA"/>
<defs>
<filter id="filter0_d_535_1643" x="0" y="0" width="670" height="480" filterUnits="userSpaceOnUse" color-interpolation-filters="sRGB">
<feFlood flood-opacity="0" result="BackgroundImageFix"/>
<feColorMatrix in="SourceAlpha" type="matrix" values="0 0 0 0 0 0 0 0 0 0 0 0 0 0 0 0 0 0 127 0" result="hardAlpha"/>
<feMorphology radius="15" operator="erode" in="SourceAlpha" result="effect1_dropShadow_535_1643"/>
<feOffset dy="18"/>
<feGaussianBlur stdDeviation="25"/>
<feColorMatrix type="matrix" values="0 0 0 0 0.0996452 0 0 0 0 0.164326 0 0 0 0 0.350284 0 0 0 0.2 0"/>
<feBlend mode="normal" in2="BackgroundImageFix" result="effect1_dropShadow_535_1643"/>
<feBlend mode="normal" in="SourceGraphic" in2="effect1_dropShadow_535_1643" result="shape"/>
</filter>
</defs>
</svg>
